<svg xmlns="http://www.w3.org/2000/svg" width="800" height="460" viewBox="0 0 800 460">
  <defs>
    <linearGradient id="1-a" x1="0%" y1="0%" y2="65.601%">
      <stop offset="0%" stop-color="#072333"/>
      <stop offset="100%" stop-color="#8FA6B2"/>
    </linearGradient>
    <linearGradient id="1-b" x1="154.609%" x2="-18.503%" y1="5.477%" y2="92.926%">
      <stop offset="0%" stop-color="#072333"/>
      <stop offset="100%" stop-color="#8FA6B2"/>
    </linearGradient>
    <linearGradient id="1-c" x1="106.172%" x2="15.206%" y1="82.094%" y2="82.094%">
      <stop offset="0%" stop-color="#072333"/>
      <stop offset="100%" stop-color="#8FA6B2"/>
    </linearGradient>
    <linearGradient id="1-d" x1="100%" x2="0%" y1="100%" y2="0%">
      <stop offset="0%" stop-color="#EFF3F5"/>
      <stop offset="100%" stop-color="#8FA6B2"/>
    </linearGradient>
  </defs>
  <g fill="none" fill-rule="evenodd">
    <path fill="url(#1-a)" fill-rule="nonzero" d="M62,161 C60.8954305,161 60,160.104569 60,159 C60,157.895431 60.8954305,157 62,157 C63.1045695,157 64,157.895431 64,159 C64,160.104569 63.1045695,161 62,161 Z M174,161 C172.895431,161 172,160.104569 172,159 C172,157.895431 172.895431,157 174,157 C175.104569,157 176,157.895431 176,159 C176,160.104569 175.104569,161 174,161 Z M118,161 C116.895431,161 116,160.104569 116,159 C116,157.895431 116.895431,157 118,157 C119.104569,157 120,157.895431 120,159 C120,160.104569 119.104569,161 118,161 Z M230,161 C228.895431,161 228,160.104569 228,159 C228,157.895431 228.895431,157 230,157 C231.104569,157 232,157.895431 232,159 C232,160.104569 231.104569,161 230,161 Z M90,161 C88.8954305,161 88,160.104569 88,159 C88,157.895431 88.8954305,157 90,157 C91.1045695,157 92,157.895431 92,159 C92,160.104569 91.1045695,161 90,161 Z M202,161 C200.895431,161 200,160.104569 200,159 C200,157.895431 200.895431,157 202,157 C203.104569,157 204,157.895431 204,159 C204,160.104569 203.104569,161 202,161 Z M146,161 C144.895431,161 144,160.104569 144,159 C144,157.895431 144.895431,157 146,157 C147.104569,157 148,157.895431 148,159 C148,160.104569 147.104569,161 146,161 Z M76,161 C74.8954305,161 74,160.104569 74,159 C74,157.895431 74.8954305,157 76,157 C77.1045695,157 78,157.895431 78,159 C78,160.104569 77.1045695,161 76,161 Z M188,161 C186.895431,161 186,160.104569 186,159 C186,157.895431 186.895431,157 188,157 C189.104569,157 190,157.895431 190,159 C190,160.104569 189.104569,161 188,161 Z M132,161 C130.895431,161 130,160.104569 130,159 C130,157.895431 130.895431,157 132,157 C133.104569,157 134,157.895431 134,159 C134,160.104569 133.104569,161 132,161 Z M244,161 C242.895431,161 242,160.104569 242,159 C242,157.895431 242.895431,157 244,157 C245.104569,157 246,157.895431 246,159 C246,160.104569 245.104569,161 244,161 Z M104,161 C102.895431,161 102,160.104569 102,159 C102,157.895431 102.895431,157 104,157 C105.104569,157 106,157.895431 106,159 C106,160.104569 105.104569,161 104,161 Z M216,161 C214.895431,161 214,160.104569 214,159 C214,157.895431 214.895431,157 216,157 C217.104569,157 218,157.895431 218,159 C218,160.104569 217.104569,161 216,161 Z M160,161 C158.895431,161 158,160.104569 158,159 C158,157.895431 158.895431,157 160,157 C161.104569,157 162,157.895431 162,159 C162,160.104569 161.104569,161 160,161 Z M62,175 C60.8954305,175 60,174.104569 60,173 C60,171.895431 60.8954305,171 62,171 C63.1045695,171 64,171.895431 64,173 C64,174.104569 63.1045695,175 62,175 Z M174,175 C172.895431,175 172,174.104569 172,173 C172,171.895431 172.895431,171 174,171 C175.104569,171 176,171.895431 176,173 C176,174.104569 175.104569,175 174,175 Z M118,175 C116.895431,175 116,174.104569 116,173 C116,171.895431 116.895431,171 118,171 C119.104569,171 120,171.895431 120,173 C120,174.104569 119.104569,175 118,175 Z M230,175 C228.895431,175 228,174.104569 228,173 C228,171.895431 228.895431,171 230,171 C231.104569,171 232,171.895431 232,173 C232,174.104569 231.104569,175 230,175 Z M90,175 C88.8954305,175 88,174.104569 88,173 C88,171.895431 88.8954305,171 90,171 C91.1045695,171 92,171.895431 92,173 C92,174.104569 91.1045695,175 90,175 Z M202,175 C200.895431,175 200,174.104569 200,173 C200,171.895431 200.895431,171 202,171 C203.104569,171 204,171.895431 204,173 C204,174.104569 203.104569,175 202,175 Z M146,175 C144.895431,175 144,174.104569 144,173 C144,171.895431 144.895431,171 146,171 C147.104569,171 148,171.895431 148,173 C148,174.104569 147.104569,175 146,175 Z M76,175 C74.8954305,175 74,174.104569 74,173 C74,171.895431 74.8954305,171 76,171 C77.1045695,171 78,171.895431 78,173 C78,174.104569 77.1045695,175 76,175 Z M188,175 C186.895431,175 186,174.104569 186,173 C186,171.895431 186.895431,171 188,171 C189.104569,171 190,171.895431 190,173 C190,174.104569 189.104569,175 188,175 Z M132,175 C130.895431,175 130,174.104569 130,173 C130,171.895431 130.895431,171 132,171 C133.104569,171 134,171.895431 134,173 C134,174.104569 133.104569,175 132,175 Z M244,175 C242.895431,175 242,174.104569 242,173 C242,171.895431 242.895431,171 244,171 C245.104569,171 246,171.895431 246,173 C246,174.104569 245.104569,175 244,175 Z M104,175 C102.895431,175 102,174.104569 102,173 C102,171.895431 102.895431,171 104,171 C105.104569,171 106,171.895431 106,173 C106,174.104569 105.104569,175 104,175 Z M216,175 C214.895431,175 214,174.104569 214,173 C214,171.895431 214.895431,171 216,171 C217.104569,171 218,171.895431 218,173 C218,174.104569 217.104569,175 216,175 Z M160,175 C158.895431,175 158,174.104569 158,173 C158,171.895431 158.895431,171 160,171 C161.104569,171 162,171.895431 162,173 C162,174.104569 161.104569,175 160,175 Z M62,189 C60.8954305,189 60,188.104569 60,187 C60,185.895431 60.8954305,185 62,185 C63.1045695,185 64,185.895431 64,187 C64,188.104569 63.1045695,189 62,189 Z M174,189 C172.895431,189 172,188.104569 172,187 C172,185.895431 172.895431,185 174,185 C175.104569,185 176,185.895431 176,187 C176,188.104569 175.104569,189 174,189 Z M118,189 C116.895431,189 116,188.104569 116,187 C116,185.895431 116.895431,185 118,185 C119.104569,185 120,185.895431 120,187 C120,188.104569 119.104569,189 118,189 Z M230,189 C228.895431,189 228,188.104569 228,187 C228,185.895431 228.895431,185 230,185 C231.104569,185 232,185.895431 232,187 C232,188.104569 231.104569,189 230,189 Z M90,189 C88.8954305,189 88,188.104569 88,187 C88,185.895431 88.8954305,185 90,185 C91.1045695,185 92,185.895431 92,187 C92,188.104569 91.1045695,189 90,189 Z M202,189 C200.895431,189 200,188.104569 200,187 C200,185.895431 200.895431,185 202,185 C203.104569,185 204,185.895431 204,187 C204,188.104569 203.104569,189 202,189 Z M146,189 C144.895431,189 144,188.104569 144,187 C144,185.895431 144.895431,185 146,185 C147.104569,185 148,185.895431 148,187 C148,188.104569 147.104569,189 146,189 Z M76,189 C74.8954305,189 74,188.104569 74,187 C74,185.895431 74.8954305,185 76,185 C77.1045695,185 78,185.895431 78,187 C78,188.104569 77.1045695,189 76,189 Z M188,189 C186.895431,189 186,188.104569 186,187 C186,185.895431 186.895431,185 188,185 C189.104569,185 190,185.895431 190,187 C190,188.104569 189.104569,189 188,189 Z M132,189 C130.895431,189 130,188.104569 130,187 C130,185.895431 130.895431,185 132,185 C133.104569,185 134,185.895431 134,187 C134,188.104569 133.104569,189 132,189 Z M244,189 C242.895431,189 242,188.104569 242,187 C242,185.895431 242.895431,185 244,185 C245.104569,185 246,185.895431 246,187 C246,188.104569 245.104569,189 244,189 Z M104,189 C102.895431,189 102,188.104569 102,187 C102,185.895431 102.895431,185 104,185 C105.104569,185 106,185.895431 106,187 C106,188.104569 105.104569,189 104,189 Z M216,189 C214.895431,189 214,188.104569 214,187 C214,185.895431 214.895431,185 216,185 C217.104569,185 218,185.895431 218,187 C218,188.104569 217.104569,189 216,189 Z M160,189 C158.895431,189 158,188.104569 158,187 C158,185.895431 158.895431,185 160,185 C161.104569,185 162,185.895431 162,187 C162,188.104569 161.104569,189 160,189 Z M62,203 C60.8954305,203 60,202.104569 60,201 C60,199.895431 60.8954305,199 62,199 C63.1045695,199 64,199.895431 64,201 C64,202.104569 63.1045695,203 62,203 Z M174,203 C172.895431,203 172,202.104569 172,201 C172,199.895431 172.895431,199 174,199 C175.104569,199 176,199.895431 176,201 C176,202.104569 175.104569,203 174,203 Z M118,203 C116.895431,203 116,202.104569 116,201 C116,199.895431 116.895431,199 118,199 C119.104569,199 120,199.895431 120,201 C120,202.104569 119.104569,203 118,203 Z M230,203 C228.895431,203 228,202.104569 228,201 C228,199.895431 228.895431,199 230,199 C231.104569,199 232,199.895431 232,201 C232,202.104569 231.104569,203 230,203 Z M90,203 C88.8954305,203 88,202.104569 88,201 C88,199.895431 88.8954305,199 90,199 C91.1045695,199 92,199.895431 92,201 C92,202.104569 91.1045695,203 90,203 Z M202,203 C200.895431,203 200,202.104569 200,201 C200,199.895431 200.895431,199 202,199 C203.104569,199 204,199.895431 204,201 C204,202.104569 203.104569,203 202,203 Z M146,203 C144.895431,203 144,202.104569 144,201 C144,199.895431 144.895431,199 146,199 C147.104569,199 148,199.895431 148,201 C148,202.104569 147.104569,203 146,203 Z M76,203 C74.8954305,203 74,202.104569 74,201 C74,199.895431 74.8954305,199 76,199 C77.1045695,199 78,199.895431 78,201 C78,202.104569 77.1045695,203 76,203 Z M188,203 C186.895431,203 186,202.104569 186,201 C186,199.895431 186.895431,199 188,199 C189.104569,199 190,199.895431 190,201 C190,202.104569 189.104569,203 188,203 Z M132,203 C130.895431,203 130,202.104569 130,201 C130,199.895431 130.895431,199 132,199 C133.104569,199 134,199.895431 134,201 C134,202.104569 133.104569,203 132,203 Z M244,203 C242.895431,203 242,202.104569 242,201 C242,199.895431 242.895431,199 244,199 C245.104569,199 246,199.895431 246,201 C246,202.104569 245.104569,203 244,203 Z M104,203 C102.895431,203 102,202.104569 102,201 C102,199.895431 102.895431,199 104,199 C105.104569,199 106,199.895431 106,201 C106,202.104569 105.104569,203 104,203 Z M216,203 C214.895431,203 214,202.104569 214,201 C214,199.895431 214.895431,199 216,199 C217.104569,199 218,199.895431 218,201 C218,202.104569 217.104569,203 216,203 Z M160,203 C158.895431,203 158,202.104569 158,201 C158,199.895431 158.895431,199 160,199 C161.104569,199 162,199.895431 162,201 C162,202.104569 161.104569,203 160,203 Z M62,217 C60.8954305,217 60,216.104569 60,215 C60,213.895431 60.8954305,213 62,213 C63.1045695,213 64,213.895431 64,215 C64,216.104569 63.1045695,217 62,217 Z M174,217 C172.895431,217 172,216.104569 172,215 C172,213.895431 172.895431,213 174,213 C175.104569,213 176,213.895431 176,215 C176,216.104569 175.104569,217 174,217 Z M118,217 C116.895431,217 116,216.104569 116,215 C116,213.895431 116.895431,213 118,213 C119.104569,213 120,213.895431 120,215 C120,216.104569 119.104569,217 118,217 Z M230,217 C228.895431,217 228,216.104569 228,215 C228,213.895431 228.895431,213 230,213 C231.104569,213 232,213.895431 232,215 C232,216.104569 231.104569,217 230,217 Z M90,217 C88.8954305,217 88,216.104569 88,215 C88,213.895431 88.8954305,213 90,213 C91.1045695,213 92,213.895431 92,215 C92,216.104569 91.1045695,217 90,217 Z M202,217 C200.895431,217 200,216.104569 200,215 C200,213.895431 200.895431,213 202,213 C203.104569,213 204,213.895431 204,215 C204,216.104569 203.104569,217 202,217 Z M146,217 C144.895431,217 144,216.104569 144,215 C144,213.895431 144.895431,213 146,213 C147.104569,213 148,213.895431 148,215 C148,216.104569 147.104569,217 146,217 Z M76,217 C74.8954305,217 74,216.104569 74,215 C74,213.895431 74.8954305,213 76,213 C77.1045695,213 78,213.895431 78,215 C78,216.104569 77.1045695,217 76,217 Z M188,217 C186.895431,217 186,216.104569 186,215 C186,213.895431 186.895431,213 188,213 C189.104569,213 190,213.895431 190,215 C190,216.104569 189.104569,217 188,217 Z M132,217 C130.895431,217 130,216.104569 130,215 C130,213.895431 130.895431,213 132,213 C133.104569,213 134,213.895431 134,215 C134,216.104569 133.104569,217 132,217 Z M244,217 C242.895431,217 242,216.104569 242,215 C242,213.895431 242.895431,213 244,213 C245.104569,213 246,213.895431 246,215 C246,216.104569 245.104569,217 244,217 Z M104,217 C102.895431,217 102,216.104569 102,215 C102,213.895431 102.895431,213 104,213 C105.104569,213 106,213.895431 106,215 C106,216.104569 105.104569,217 104,217 Z M216,217 C214.895431,217 214,216.104569 214,215 C214,213.895431 214.895431,213 216,213 C217.104569,213 218,213.895431 218,215 C218,216.104569 217.104569,217 216,217 Z M160,217 C158.895431,217 158,216.104569 158,215 C158,213.895431 158.895431,213 160,213 C161.104569,213 162,213.895431 162,215 C162,216.104569 161.104569,217 160,217 Z M62,231 C60.8954305,231 60,230.104569 60,229 C60,227.895431 60.8954305,227 62,227 C63.1045695,227 64,227.895431 64,229 C64,230.104569 63.1045695,231 62,231 Z M174,231 C172.895431,231 172,230.104569 172,229 C172,227.895431 172.895431,227 174,227 C175.104569,227 176,227.895431 176,229 C176,230.104569 175.104569,231 174,231 Z M118,231 C116.895431,231 116,230.104569 116,229 C116,227.895431 116.895431,227 118,227 C119.104569,227 120,227.895431 120,229 C120,230.104569 119.104569,231 118,231 Z M230,231 C228.895431,231 228,230.104569 228,229 C228,227.895431 228.895431,227 230,227 C231.104569,227 232,227.895431 232,229 C232,230.104569 231.104569,231 230,231 Z M90,231 C88.8954305,231 88,230.104569 88,229 C88,227.895431 88.8954305,227 90,227 C91.1045695,227 92,227.895431 92,229 C92,230.104569 91.1045695,231 90,231 Z M202,231 C200.895431,231 200,230.104569 200,229 C200,227.895431 200.895431,227 202,227 C203.104569,227 204,227.895431 204,229 C204,230.104569 203.104569,231 202,231 Z M146,231 C144.895431,231 144,230.104569 144,229 C144,227.895431 144.895431,227 146,227 C147.104569,227 148,227.895431 148,229 C148,230.104569 147.104569,231 146,231 Z M76,231 C74.8954305,231 74,230.104569 74,229 C74,227.895431 74.8954305,227 76,227 C77.1045695,227 78,227.895431 78,229 C78,230.104569 77.1045695,231 76,231 Z M188,231 C186.895431,231 186,230.104569 186,229 C186,227.895431 186.895431,227 188,227 C189.104569,227 190,227.895431 190,229 C190,230.104569 189.104569,231 188,231 Z M132,231 C130.895431,231 130,230.104569 130,229 C130,227.895431 130.895431,227 132,227 C133.104569,227 134,227.895431 134,229 C134,230.104569 133.104569,231 132,231 Z M244,231 C242.895431,231 242,230.104569 242,229 C242,227.895431 242.895431,227 244,227 C245.104569,227 246,227.895431 246,229 C246,230.104569 245.104569,231 244,231 Z M104,231 C102.895431,231 102,230.104569 102,229 C102,227.895431 102.895431,227 104,227 C105.104569,227 106,227.895431 106,229 C106,230.104569 105.104569,231 104,231 Z M216,231 C214.895431,231 214,230.104569 214,229 C214,227.895431 214.895431,227 216,227 C217.104569,227 218,227.895431 218,229 C218,230.104569 217.104569,231 216,231 Z M160,231 C158.895431,231 158,230.104569 158,229 C158,227.895431 158.895431,227 160,227 C161.104569,227 162,227.895431 162,229 C162,230.104569 161.104569,231 160,231 Z"/>
    <path fill="url(#1-b)" fill-rule="nonzero" d="M461.998565,89 C460.893996,89 459.998565,88.1045695 459.998565,87 C459.998565,85.8954305 460.893996,85 461.998565,85 C463.103135,85 463.998565,85.8954305 463.998565,87 C463.998565,88.1045695 463.103135,89 461.998565,89 Z M433.998565,89 C432.893996,89 431.998565,88.1045695 431.998565,87 C431.998565,85.8954305 432.893996,85 433.998565,85 C435.103135,85 435.998565,85.8954305 435.998565,87 C435.998565,88.1045695 435.103135,89 433.998565,89 Z M475.998565,89 C474.893996,89 473.998565,88.1045695 473.998565,87 C473.998565,85.8954305 474.893996,85 475.998565,85 C477.103135,85 477.998565,85.8954305 477.998565,87 C477.998565,88.1045695 477.103135,89 475.998565,89 Z M447.998565,89 C446.893996,89 445.998565,88.1045695 445.998565,87 C445.998565,85.8954305 446.893996,85 447.998565,85 C449.103135,85 449.998565,85.8954305 449.998565,87 C449.998565,88.1045695 449.103135,89 447.998565,89 Z M461.998565,103 C460.893996,103 459.998565,102.104569 459.998565,101 C459.998565,99.8954305 460.893996,99 461.998565,99 C463.103135,99 463.998565,99.8954305 463.998565,101 C463.998565,102.104569 463.103135,103 461.998565,103 Z M489.998565,103 C488.893996,103 487.998565,102.104569 487.998565,101 C487.998565,99.8954305 488.893996,99 489.998565,99 C491.103135,99 491.998565,99.8954305 491.998565,101 C491.998565,102.104569 491.103135,103 489.998565,103 Z M433.998565,103 C432.893996,103 431.998565,102.104569 431.998565,101 C431.998565,99.8954305 432.893996,99 433.998565,99 C435.103135,99 435.998565,99.8954305 435.998565,101 C435.998565,102.104569 435.103135,103 433.998565,103 Z M475.998565,103 C474.893996,103 473.998565,102.104569 473.998565,101 C473.998565,99.8954305 474.893996,99 475.998565,99 C477.103135,99 477.998565,99.8954305 477.998565,101 C477.998565,102.104569 477.103135,103 475.998565,103 Z M419.998565,103 C418.893996,103 417.998565,102.104569 417.998565,101 C417.998565,99.8954305 418.893996,99 419.998565,99 C421.103135,99 421.998565,99.8954305 421.998565,101 C421.998565,102.104569 421.103135,103 419.998565,103 Z M447.998565,103 C446.893996,103 445.998565,102.104569 445.998565,101 C445.998565,99.8954305 446.893996,99 447.998565,99 C449.103135,99 449.998565,99.8954305 449.998565,101 C449.998565,102.104569 449.103135,103 447.998565,103 Z M461.998565,117 C460.893996,117 459.998565,116.104569 459.998565,115 C459.998565,113.895431 460.893996,113 461.998565,113 C463.103135,113 463.998565,113.895431 463.998565,115 C463.998565,116.104569 463.103135,117 461.998565,117 Z M405.998565,117 C404.893996,117 403.998565,116.104569 403.998565,115 C403.998565,113.895431 404.893996,113 405.998565,113 C407.103135,113 407.998565,113.895431 407.998565,115 C407.998565,116.104569 407.103135,117 405.998565,117 Z M489.998565,117 C488.893996,117 487.998565,116.104569 487.998565,115 C487.998565,113.895431 488.893996,113 489.998565,113 C491.103135,113 491.998565,113.895431 491.998565,115 C491.998565,116.104569 491.103135,117 489.998565,117 Z M433.998565,117 C432.893996,117 431.998565,116.104569 431.998565,115 C431.998565,113.895431 432.893996,113 433.998565,113 C435.103135,113 435.998565,113.895431 435.998565,115 C435.998565,116.104569 435.103135,117 433.998565,117 Z M475.998565,117 C474.893996,117 473.998565,116.104569 473.998565,115 C473.998565,113.895431 474.893996,113 475.998565,113 C477.103135,113 477.998565,113.895431 477.998565,115 C477.998565,116.104569 477.103135,117 475.998565,117 Z M419.998565,117 C418.893996,117 417.998565,116.104569 417.998565,115 C417.998565,113.895431 418.893996,113 419.998565,113 C421.103135,113 421.998565,113.895431 421.998565,115 C421.998565,116.104569 421.103135,117 419.998565,117 Z M503.998565,117 C502.893996,117 501.998565,116.104569 501.998565,115 C501.998565,113.895431 502.893996,113 503.998565,113 C505.103135,113 505.998565,113.895431 505.998565,115 C505.998565,116.104569 505.103135,117 503.998565,117 Z M447.998565,117 C446.893996,117 445.998565,116.104569 445.998565,115 C445.998565,113.895431 446.893996,113 447.998565,113 C449.103135,113 449.998565,113.895431 449.998565,115 C449.998565,116.104569 449.103135,117 447.998565,117 Z M461.998565,131 C460.893996,131 459.998565,130.104569 459.998565,129 C459.998565,127.895431 460.893996,127 461.998565,127 C463.103135,127 463.998565,127.895431 463.998565,129 C463.998565,130.104569 463.103135,131 461.998565,131 Z M405.998565,131 C404.893996,131 403.998565,130.104569 403.998565,129 C403.998565,127.895431 404.893996,127 405.998565,127 C407.103135,127 407.998565,127.895431 407.998565,129 C407.998565,130.104569 407.103135,131 405.998565,131 Z M517.998565,131 C516.893996,131 515.998565,130.104569 515.998565,129 C515.998565,127.895431 516.893996,127 517.998565,127 C519.103135,127 519.998565,127.895431 519.998565,129 C519.998565,130.104569 519.103135,131 517.998565,131 Z M489.998565,131 C488.893996,131 487.998565,130.104569 487.998565,129 C487.998565,127.895431 488.893996,127 489.998565,127 C491.103135,127 491.998565,127.895431 491.998565,129 C491.998565,130.104569 491.103135,131 489.998565,131 Z M433.998565,131 C432.893996,131 431.998565,130.104569 431.998565,129 C431.998565,127.895431 432.893996,127 433.998565,127 C435.103135,127 435.998565,127.895431 435.998565,129 C435.998565,130.104569 435.103135,131 433.998565,131 Z M475.998565,131 C474.893996,131 473.998565,130.104569 473.998565,129 C473.998565,127.895431 474.893996,127 475.998565,127 C477.103135,127 477.998565,127.895431 477.998565,129 C477.998565,130.104569 477.103135,131 475.998565,131 Z M419.998565,131 C418.893996,131 417.998565,130.104569 417.998565,129 C417.998565,127.895431 418.893996,127 419.998565,127 C421.103135,127 421.998565,127.895431 421.998565,129 C421.998565,130.104569 421.103135,131 419.998565,131 Z M391.998565,131 C390.893996,131 389.998565,130.104569 389.998565,129 C389.998565,127.895431 390.893996,127 391.998565,127 C393.103135,127 393.998565,127.895431 393.998565,129 C393.998565,130.104569 393.103135,131 391.998565,131 Z M503.998565,131 C502.893996,131 501.998565,130.104569 501.998565,129 C501.998565,127.895431 502.893996,127 503.998565,127 C505.103135,127 505.998565,127.895431 505.998565,129 C505.998565,130.104569 505.103135,131 503.998565,131 Z M447.998565,131 C446.893996,131 445.998565,130.104569 445.998565,129 C445.998565,127.895431 446.893996,127 447.998565,127 C449.103135,127 449.998565,127.895431 449.998565,129 C449.998565,130.104569 449.103135,131 447.998565,131 Z M461.998565,145 C460.893996,145 459.998565,144.104569 459.998565,143 C459.998565,141.895431 460.893996,141 461.998565,141 C463.103135,141 463.998565,141.895431 463.998565,143 C463.998565,144.104569 463.103135,145 461.998565,145 Z M405.998565,145 C404.893996,145 403.998565,144.104569 403.998565,143 C403.998565,141.895431 404.893996,141 405.998565,141 C407.103135,141 407.998565,141.895431 407.998565,143 C407.998565,144.104569 407.103135,145 405.998565,145 Z M517.998565,145 C516.893996,145 515.998565,144.104569 515.998565,143 C515.998565,141.895431 516.893996,141 517.998565,141 C519.103135,141 519.998565,141.895431 519.998565,143 C519.998565,144.104569 519.103135,145 517.998565,145 Z M489.998565,145 C488.893996,145 487.998565,144.104569 487.998565,143 C487.998565,141.895431 488.893996,141 489.998565,141 C491.103135,141 491.998565,141.895431 491.998565,143 C491.998565,144.104569 491.103135,145 489.998565,145 Z M433.998565,145 C432.893996,145 431.998565,144.104569 431.998565,143 C431.998565,141.895431 432.893996,141 433.998565,141 C435.103135,141 435.998565,141.895431 435.998565,143 C435.998565,144.104569 435.103135,145 433.998565,145 Z M475.998565,145 C474.893996,145 473.998565,144.104569 473.998565,143 C473.998565,141.895431 474.893996,141 475.998565,141 C477.103135,141 477.998565,141.895431 477.998565,143 C477.998565,144.104569 477.103135,145 475.998565,145 Z M419.998565,145 C418.893996,145 417.998565,144.104569 417.998565,143 C417.998565,141.895431 418.893996,141 419.998565,141 C421.103135,141 421.998565,141.895431 421.998565,143 C421.998565,144.104569 421.103135,145 419.998565,145 Z M391.998565,145 C390.893996,145 389.998565,144.104569 389.998565,143 C389.998565,141.895431 390.893996,141 391.998565,141 C393.103135,141 393.998565,141.895431 393.998565,143 C393.998565,144.104569 393.103135,145 391.998565,145 Z M503.998565,145 C502.893996,145 501.998565,144.104569 501.998565,143 C501.998565,141.895431 502.893996,141 503.998565,141 C505.103135,141 505.998565,141.895431 505.998565,143 C505.998565,144.104569 505.103135,145 503.998565,145 Z M447.998565,145 C446.893996,145 445.998565,144.104569 445.998565,143 C445.998565,141.895431 446.893996,141 447.998565,141 C449.103135,141 449.998565,141.895431 449.998565,143 C449.998565,144.104569 449.103135,145 447.998565,145 Z M461.998565,159 C460.893996,159 459.998565,158.104569 459.998565,157 C459.998565,155.895431 460.893996,155 461.998565,155 C463.103135,155 463.998565,155.895431 463.998565,157 C463.998565,158.104569 463.103135,159 461.998565,159 Z M405.998565,159 C404.893996,159 403.998565,158.104569 403.998565,157 C403.998565,155.895431 404.893996,155 405.998565,155 C407.103135,155 407.998565,155.895431 407.998565,157 C407.998565,158.104569 407.103135,159 405.998565,159 Z M517.998565,159 C516.893996,159 515.998565,158.104569 515.998565,157 C515.998565,155.895431 516.893996,155 517.998565,155 C519.103135,155 519.998565,155.895431 519.998565,157 C519.998565,158.104569 519.103135,159 517.998565,159 Z M489.998565,159 C488.893996,159 487.998565,158.104569 487.998565,157 C487.998565,155.895431 488.893996,155 489.998565,155 C491.103135,155 491.998565,155.895431 491.998565,157 C491.998565,158.104569 491.103135,159 489.998565,159 Z M433.998565,159 C432.893996,159 431.998565,158.104569 431.998565,157 C431.998565,155.895431 432.893996,155 433.998565,155 C435.103135,155 435.998565,155.895431 435.998565,157 C435.998565,158.104569 435.103135,159 433.998565,159 Z M475.998565,159 C474.893996,159 473.998565,158.104569 473.998565,157 C473.998565,155.895431 474.893996,155 475.998565,155 C477.103135,155 477.998565,155.895431 477.998565,157 C477.998565,158.104569 477.103135,159 475.998565,159 Z M419.998565,159 C418.893996,159 417.998565,158.104569 417.998565,157 C417.998565,155.895431 418.893996,155 419.998565,155 C421.103135,155 421.998565,155.895431 421.998565,157 C421.998565,158.104569 421.103135,159 419.998565,159 Z M391.998565,159 C390.893996,159 389.998565,158.104569 389.998565,157 C389.998565,155.895431 390.893996,155 391.998565,155 C393.103135,155 393.998565,155.895431 393.998565,157 C393.998565,158.104569 393.103135,159 391.998565,159 Z M503.998565,159 C502.893996,159 501.998565,158.104569 501.998565,157 C501.998565,155.895431 502.893996,155 503.998565,155 C505.103135,155 505.998565,155.895431 505.998565,157 C505.998565,158.104569 505.103135,159 503.998565,159 Z M447.998565,159 C446.893996,159 445.998565,158.104569 445.998565,157 C445.998565,155.895431 446.893996,155 447.998565,155 C449.103135,155 449.998565,155.895431 449.998565,157 C449.998565,158.104569 449.103135,159 447.998565,159 Z M461.998565,173 C460.893996,173 459.998565,172.104569 459.998565,171 C459.998565,169.895431 460.893996,169 461.998565,169 C463.103135,169 463.998565,169.895431 463.998565,171 C463.998565,172.104569 463.103135,173 461.998565,173 Z M405.998565,173 C404.893996,173 403.998565,172.104569 403.998565,171 C403.998565,169.895431 404.893996,169 405.998565,169 C407.103135,169 407.998565,169.895431 407.998565,171 C407.998565,172.104569 407.103135,173 405.998565,173 Z M517.998565,173 C516.893996,173 515.998565,172.104569 515.998565,171 C515.998565,169.895431 516.893996,169 517.998565,169 C519.103135,169 519.998565,169.895431 519.998565,171 C519.998565,172.104569 519.103135,173 517.998565,173 Z M489.998565,173 C488.893996,173 487.998565,172.104569 487.998565,171 C487.998565,169.895431 488.893996,169 489.998565,169 C491.103135,169 491.998565,169.895431 491.998565,171 C491.998565,172.104569 491.103135,173 489.998565,173 Z M433.998565,173 C432.893996,173 431.998565,172.104569 431.998565,171 C431.998565,169.895431 432.893996,169 433.998565,169 C435.103135,169 435.998565,169.895431 435.998565,171 C435.998565,172.104569 435.103135,173 433.998565,173 Z M475.998565,173 C474.893996,173 473.998565,172.104569 473.998565,171 C473.998565,169.895431 474.893996,169 475.998565,169 C477.103135,169 477.998565,169.895431 477.998565,171 C477.998565,172.104569 477.103135,173 475.998565,173 Z M419.998565,173 C418.893996,173 417.998565,172.104569 417.998565,171 C417.998565,169.895431 418.893996,169 419.998565,169 C421.103135,169 421.998565,169.895431 421.998565,171 C421.998565,172.104569 421.103135,173 419.998565,173 Z M391.998565,173 C390.893996,173 389.998565,172.104569 389.998565,171 C389.998565,169.895431 390.893996,169 391.998565,169 C393.103135,169 393.998565,169.895431 393.998565,171 C393.998565,172.104569 393.103135,173 391.998565,173 Z M503.998565,173 C502.893996,173 501.998565,172.104569 501.998565,171 C501.998565,169.895431 502.893996,169 503.998565,169 C505.103135,169 505.998565,169.895431 505.998565,171 C505.998565,172.104569 505.103135,173 503.998565,173 Z M447.998565,173 C446.893996,173 445.998565,172.104569 445.998565,171 C445.998565,169.895431 446.893996,169 447.998565,169 C449.103135,169 449.998565,169.895431 449.998565,171 C449.998565,172.104569 449.103135,173 447.998565,173 Z M461.998565,187 C460.893996,187 459.998565,186.104569 459.998565,185 C459.998565,183.895431 460.893996,183 461.998565,183 C463.103135,183 463.998565,183.895431 463.998565,185 C463.998565,186.104569 463.103135,187 461.998565,187 Z M405.998565,187 C404.893996,187 403.998565,186.104569 403.998565,185 C403.998565,183.895431 404.893996,183 405.998565,183 C407.103135,183 407.998565,183.895431 407.998565,185 C407.998565,186.104569 407.103135,187 405.998565,187 Z M489.998565,187 C488.893996,187 487.998565,186.104569 487.998565,185 C487.998565,183.895431 488.893996,183 489.998565,183 C491.103135,183 491.998565,183.895431 491.998565,185 C491.998565,186.104569 491.103135,187 489.998565,187 Z M433.998565,187 C432.893996,187 431.998565,186.104569 431.998565,185 C431.998565,183.895431 432.893996,183 433.998565,183 C435.103135,183 435.998565,183.895431 435.998565,185 C435.998565,186.104569 435.103135,187 433.998565,187 Z M475.998565,187 C474.893996,187 473.998565,186.104569 473.998565,185 C473.998565,183.895431 474.893996,183 475.998565,183 C477.103135,183 477.998565,183.895431 477.998565,185 C477.998565,186.104569 477.103135,187 475.998565,187 Z M419.998565,187 C418.893996,187 417.998565,186.104569 417.998565,185 C417.998565,183.895431 418.893996,183 419.998565,183 C421.103135,183 421.998565,183.895431 421.998565,185 C421.998565,186.104569 421.103135,187 419.998565,187 Z M503.998565,187 C502.893996,187 501.998565,186.104569 501.998565,185 C501.998565,183.895431 502.893996,183 503.998565,183 C505.103135,183 505.998565,183.895431 505.998565,185 C505.998565,186.104569 505.103135,187 503.998565,187 Z M447.998565,187 C446.893996,187 445.998565,186.104569 445.998565,185 C445.998565,183.895431 446.893996,183 447.998565,183 C449.103135,183 449.998565,183.895431 449.998565,185 C449.998565,186.104569 449.103135,187 447.998565,187 Z M461.998565,201 C460.893996,201 459.998565,200.104569 459.998565,199 C459.998565,197.895431 460.893996,197 461.998565,197 C463.103135,197 463.998565,197.895431 463.998565,199 C463.998565,200.104569 463.103135,201 461.998565,201 Z M489.998565,201 C488.893996,201 487.998565,200.104569 487.998565,199 C487.998565,197.895431 488.893996,197 489.998565,197 C491.103135,197 491.998565,197.895431 491.998565,199 C491.998565,200.104569 491.103135,201 489.998565,201 Z M433.998565,201 C432.893996,201 431.998565,200.104569 431.998565,199 C431.998565,197.895431 432.893996,197 433.998565,197 C435.103135,197 435.998565,197.895431 435.998565,199 C435.998565,200.104569 435.103135,201 433.998565,201 Z M475.998565,201 C474.893996,201 473.998565,200.104569 473.998565,199 C473.998565,197.895431 474.893996,197 475.998565,197 C477.103135,197 477.998565,197.895431 477.998565,199 C477.998565,200.104569 477.103135,201 475.998565,201 Z M419.998565,201 C418.893996,201 417.998565,200.104569 417.998565,199 C417.998565,197.895431 418.893996,197 419.998565,197 C421.103135,197 421.998565,197.895431 421.998565,199 C421.998565,200.104569 421.103135,201 419.998565,201 Z M447.998565,201 C446.893996,201 445.998565,200.104569 445.998565,199 C445.998565,197.895431 446.893996,197 447.998565,197 C449.103135,197 449.998565,197.895431 449.998565,199 C449.998565,200.104569 449.103135,201 447.998565,201 Z M461.998565,215 C460.893996,215 459.998565,214.104569 459.998565,213 C459.998565,211.895431 460.893996,211 461.998565,211 C463.103135,211 463.998565,211.895431 463.998565,213 C463.998565,214.104569 463.103135,215 461.998565,215 Z M433.998565,215 C432.893996,215 431.998565,214.104569 431.998565,213 C431.998565,211.895431 432.893996,211 433.998565,211 C435.103135,211 435.998565,211.895431 435.998565,213 C435.998565,214.104569 435.103135,215 433.998565,215 Z M475.998565,215 C474.893996,215 473.998565,214.104569 473.998565,213 C473.998565,211.895431 474.893996,211 475.998565,211 C477.103135,211 477.998565,211.895431 477.998565,213 C477.998565,214.104569 477.103135,215 475.998565,215 Z M447.998565,215 C446.893996,215 445.998565,214.104569 445.998565,213 C445.998565,211.895431 446.893996,211 447.998565,211 C449.103135,211 449.998565,211.895431 449.998565,213 C449.998565,214.104569 449.103135,215 447.998565,215 Z"/>
    <circle cx="182" cy="321" r="55" fill="url(#1-c)" fill-rule="nonzero"/>
    <polygon fill="url(#1-d)" fill-rule="nonzero" points="170 112 572 112 572 352 170 352"/>
    <g fill="url(#1-a)" fill-rule="nonzero" transform="translate(203 205)">
      <rect width="136" height="2"/>
      <rect width="100" height="2" y="12"/>
      <rect width="100" height="2" y="24"/>
    </g>
    <path fill="url(#1-a)" fill-rule="nonzero" d="M677,321 C675.895431,321 675,320.104569 675,319 C675,317.895431 675.895431,317 677,317 C678.104569,317 679,317.895431 679,319 C679,320.104569 678.104569,321 677,321 Z M649,321 C647.895431,321 647,320.104569 647,319 C647,317.895431 647.895431,317 649,317 C650.104569,317 651,317.895431 651,319 C651,320.104569 650.104569,321 649,321 Z M635,321 C633.895431,321 633,320.104569 633,319 C633,317.895431 633.895431,317 635,317 C636.104569,317 637,317.895431 637,319 C637,320.104569 636.104569,321 635,321 Z M663,321 C661.895431,321 661,320.104569 661,319 C661,317.895431 661.895431,317 663,317 C664.104569,317 665,317.895431 665,319 C665,320.104569 664.104569,321 663,321 Z M621,335 C619.895431,335 619,334.104569 619,333 C619,331.895431 619.895431,331 621,331 C622.104569,331 623,331.895431 623,333 C623,334.104569 622.104569,335 621,335 Z M677,335 C675.895431,335 675,334.104569 675,333 C675,331.895431 675.895431,331 677,331 C678.104569,331 679,331.895431 679,333 C679,334.104569 678.104569,335 677,335 Z M649,335 C647.895431,335 647,334.104569 647,333 C647,331.895431 647.895431,331 649,331 C650.104569,331 651,331.895431 651,333 C651,334.104569 650.104569,335 649,335 Z M635,335 C633.895431,335 633,334.104569 633,333 C633,331.895431 633.895431,331 635,331 C636.104569,331 637,331.895431 637,333 C637,334.104569 636.104569,335 635,335 Z M691,335 C689.895431,335 689,334.104569 689,333 C689,331.895431 689.895431,331 691,331 C692.104569,331 693,331.895431 693,333 C693,334.104569 692.104569,335 691,335 Z M663,335 C661.895431,335 661,334.104569 661,333 C661,331.895431 661.895431,331 663,331 C664.104569,331 665,331.895431 665,333 C665,334.104569 664.104569,335 663,335 Z M621,349 C619.895431,349 619,348.104569 619,347 C619,345.895431 619.895431,345 621,345 C622.104569,345 623,345.895431 623,347 C623,348.104569 622.104569,349 621,349 Z M677,349 C675.895431,349 675,348.104569 675,347 C675,345.895431 675.895431,345 677,345 C678.104569,345 679,345.895431 679,347 C679,348.104569 678.104569,349 677,349 Z M649,349 C647.895431,349 647,348.104569 647,347 C647,345.895431 647.895431,345 649,345 C650.104569,345 651,345.895431 651,347 C651,348.104569 650.104569,349 649,349 Z M635,349 C633.895431,349 633,348.104569 633,347 C633,345.895431 633.895431,345 635,345 C636.104569,345 637,345.895431 637,347 C637,348.104569 636.104569,349 635,349 Z M691,349 C689.895431,349 689,348.104569 689,347 C689,345.895431 689.895431,345 691,345 C692.104569,345 693,345.895431 693,347 C693,348.104569 692.104569,349 691,349 Z M663,349 C661.895431,349 661,348.104569 661,347 C661,345.895431 661.895431,345 663,345 C664.104569,345 665,345.895431 665,347 C665,348.104569 664.104569,349 663,349 Z M677,363 C675.895431,363 675,362.104569 675,361 C675,359.895431 675.895431,359 677,359 C678.104569,359 679,359.895431 679,361 C679,362.104569 678.104569,363 677,363 Z M649,363 C647.895431,363 647,362.104569 647,361 C647,359.895431 647.895431,359 649,359 C650.104569,359 651,359.895431 651,361 C651,362.104569 650.104569,363 649,363 Z M635,363 C633.895431,363 633,362.104569 633,361 C633,359.895431 633.895431,359 635,359 C636.104569,359 637,359.895431 637,361 C637,362.104569 636.104569,363 635,363 Z M663,363 C661.895431,363 661,362.104569 661,361 C661,359.895431 661.895431,359 663,359 C664.104569,359 665,359.895431 665,361 C665,362.104569 664.104569,363 663,363 Z" opacity=".9"/>
  </g>
</svg>
