<svg xmlns="http://www.w3.org/2000/svg" xmlns:xlink="http://www.w3.org/1999/xlink" width="800" height="460" viewBox="0 0 800 460">
  <defs>
    <linearGradient id="2-a" x1="1.62%" x2="184.97%" y1="100%" y2="2.335%">
      <stop offset="0%" stop-color="#CCD9DF"/>
      <stop offset="100%" stop-color="#8FA6B2"/>
    </linearGradient>
    <linearGradient id="2-b" x1="-37.136%" x2="66.059%" y1="-33.171%" y2="100%">
      <stop offset="0%" stop-color="#072333"/>
      <stop offset="100%" stop-color="#8FA6B2"/>
    </linearGradient>
    <linearGradient id="2-c" x1="100%" x2="-4.034%" y1="40.445%" y2="92.041%">
      <stop offset="0%" stop-color="#B1C2CB"/>
      <stop offset="41.415%" stop-color="#072333"/>
      <stop offset="100%" stop-color="#8FA6B2" stop-opacity=".5"/>
    </linearGradient>
    <linearGradient id="2-d" x1="61.055%" x2="1.598%" y1="0%" y2="98.402%">
      <stop offset="0%" stop-color="#EFF3F5"/>
      <stop offset="100%" stop-color="#8FA6B2"/>
    </linearGradient>
    <linearGradient id="2-f" x1="0%" y1="0%" y2="65.601%">
      <stop offset="0%" stop-color="#072333"/>
      <stop offset="100%" stop-color="#8FA6B2"/>
    </linearGradient>
    <path id="2-e" d="M323.572266,177.981445 L321.032227,177.981445 L321.032227,168.19043 L318,169.130859 L318,167.06543 L323.299805,165.166992 L323.572266,165.166992 L323.572266,177.981445 Z M336.342773,172.69043 C336.342773,174.45997 335.976566,175.813472 335.244141,176.750977 C334.511715,177.688481 333.43946,178.157227 332.027344,178.157227 C330.632806,178.157227 329.56641,177.69727 328.828125,176.777344 C328.08984,175.857417 327.711914,174.539071 327.694336,172.822266 L327.694336,170.466797 C327.694336,168.679679 328.064938,167.323247 328.806152,166.397461 C329.547367,165.471675 330.615227,165.008789 332.009766,165.008789 C333.404304,165.008789 334.470699,165.467281 335.208984,166.384277 C335.947269,167.301274 336.325195,168.618155 336.342773,170.334961 L336.342773,172.69043 Z M333.802734,170.106445 C333.802734,169.045893 333.657716,168.273928 333.367676,167.790527 C333.077635,167.307126 332.625003,167.06543 332.009766,167.06543 C331.412106,167.06543 330.971193,167.295408 330.687012,167.755371 C330.402831,168.215334 330.251953,168.934565 330.234375,169.913086 L330.234375,173.024414 C330.234375,174.067388 330.376463,174.842283 330.660645,175.349121 C330.944826,175.85596 331.400387,176.109375 332.027344,176.109375 C332.648441,176.109375 333.096678,175.866213 333.37207,175.379883 C333.647462,174.893552 333.791016,174.149419 333.802734,173.147461 L333.802734,170.106445 Z M346.669922,172.69043 C346.669922,174.45997 346.303715,175.813472 345.571289,176.750977 C344.838864,177.688481 343.766609,178.157227 342.354492,178.157227 C340.959954,178.157227 339.893558,177.69727 339.155273,176.777344 C338.416988,175.857417 338.039063,174.539071 338.021484,172.822266 L338.021484,170.466797 C338.021484,168.679679 338.392086,167.323247 339.133301,166.397461 C339.874515,165.471675 340.942376,165.008789 342.336914,165.008789 C343.731452,165.008789 344.797848,165.467281 345.536133,166.384277 C346.274418,167.301274 346.652344,168.618155 346.669922,170.334961 L346.669922,172.69043 Z M344.129883,170.106445 C344.129883,169.045893 343.984865,168.273928 343.694824,167.790527 C343.404784,167.307126 342.952152,167.06543 342.336914,167.06543 C341.739255,167.06543 341.298341,167.295408 341.01416,167.755371 C340.729979,168.215334 340.579102,168.934565 340.561523,169.913086 L340.561523,173.024414 C340.561523,174.067388 340.703612,174.842283 340.987793,175.349121 C341.271974,175.85596 341.727536,176.109375 342.354492,176.109375 C342.975589,176.109375 343.423827,175.866213 343.699219,175.379883 C343.974611,174.893552 344.118164,174.149419 344.129883,173.147461 L344.129883,170.106445 Z M348.348633,167.645508 C348.348633,166.860348 348.603513,166.223147 349.113281,165.733887 C349.623049,165.244626 350.291011,165 351.117188,165 C351.955082,165 352.628904,165.241697 353.138672,165.725098 C353.64844,166.208499 353.90332,166.863277 353.90332,167.689453 L353.90332,168.322266 C353.90332,169.113285 353.64844,169.749021 353.138672,170.229492 C352.628904,170.709963 351.960942,170.950195 351.134766,170.950195 C350.30273,170.950195 349.630374,170.708499 349.117676,170.225098 C348.604978,169.741697 348.348633,169.089848 348.348633,168.269531 L348.348633,167.645508 Z M350.036133,168.322266 C350.036133,168.67383 350.137206,168.956542 350.339355,169.17041 C350.541505,169.384278 350.806639,169.491211 351.134766,169.491211 C351.462892,169.491211 351.723632,169.382814 351.916992,169.166016 C352.110353,168.949218 352.207031,168.659182 352.207031,168.295898 L352.207031,167.645508 C352.207031,167.293944 352.110353,167.009767 351.916992,166.792969 C351.723632,166.576171 351.457033,166.467773 351.117188,166.467773 C350.79492,166.467773 350.534181,166.574706 350.334961,166.788574 C350.135741,167.002442 350.036133,167.299803 350.036133,167.680664 L350.036133,168.322266 Z M354.46582,174.84375 C354.46582,174.05273 354.72363,173.41553 355.239258,172.932129 C355.754885,172.448728 356.422847,172.207031 357.243164,172.207031 C358.075199,172.207031 358.747556,172.445798 359.260254,172.92334 C359.772952,173.400881 360.029297,174.05859 360.029297,174.896484 L360.029297,175.529297 C360.029297,176.314457 359.777346,176.948728 359.273438,177.432129 C358.769529,177.91553 358.098637,178.157227 357.260742,178.157227 C356.416988,178.157227 355.740237,177.914065 355.230469,177.427734 C354.720701,176.941404 354.46582,176.296879 354.46582,175.494141 L354.46582,174.84375 Z M356.15332,175.529297 C356.15332,175.851564 356.258788,176.126952 356.469727,176.355469 C356.680665,176.583986 356.944334,176.698242 357.260742,176.698242 C357.97559,176.698242 358.333008,176.302738 358.333008,175.511719 L358.333008,174.84375 C358.333008,174.492186 358.233399,174.209474 358.03418,173.995605 C357.83496,173.781737 357.571291,173.674805 357.243164,173.674805 C356.915037,173.674805 356.651368,173.781737 356.452148,173.995605 C356.252929,174.209474 356.15332,174.500975 356.15332,174.870117 L356.15332,175.529297 Z M351.635742,177.023438 L350.396484,176.355469 L356.645508,166.353516 L357.884766,167.021484 L351.635742,177.023438 Z"/>
    <linearGradient id="2-g" x1="82.8%" x2="17.2%" y1="-17.2%" y2="82.8%">
      <stop offset="0%" stop-color="#072333"/>
      <stop offset="100%" stop-color="#8FA6B2"/>
    </linearGradient>
  </defs>
  <g fill="none" fill-rule="evenodd">
    <path fill="url(#2-a)" fill-rule="nonzero" d="M572,226.750282 L572,351.849637 L170,351.849637 L170,312.295084 L183.909923,301.771606 C198.168463,290.984382 217.503073,289.792343 232.978723,298.746361 C247.656027,307.238465 266.3381,303.709586 276.906473,290.448795 L285.660145,279.465022 C296.792983,265.495962 317.142091,263.19675 331.111151,274.329588 C333.58779,276.30338 335.761108,278.630218 337.561529,281.235612 L344.743375,291.628483 C354.118072,305.194633 372.715302,308.592478 386.281453,299.217782 C391.17975,295.832883 394.95419,291.060812 397.119905,285.514594 L442.53997,169.197569 C450.807821,148.024289 474.674572,137.562371 495.847852,145.830221 C505.11771,149.449963 512.762101,156.305819 517.365729,165.128483 L539.712895,207.955917 C546.159069,220.309747 558.944796,227.210349 572,226.750282 Z"/>
    <path fill="url(#2-b)" fill-rule="nonzero" d="M272.322204,146.694969 L272.322204,165.245283 C272.322204,166.902137 270.979058,168.245283 269.322204,168.245283 L257.4741,168.245283 L257.4741,180 L210.40841,180 L210.40841,160.48146 C201.049916,153.432556 195,142.233413 195,129.622642 C195,108.291946 212.309165,91 233.661102,91 C254.870916,91 272.091597,108.062513 272.319907,129.197236 L281.337378,143.635516 C281.922497,144.572377 281.637354,145.806186 280.700493,146.391306 C280.382751,146.589752 280.015661,146.694969 279.64104,146.694969 L272.322204,146.694969 Z" transform="matrix(-1 0 0 1 475.999 0)"/>
    <path stroke="url(#2-c)" stroke-width="2" d="M147,329.845976 L183.909923,301.921969 C198.168463,291.134745 217.503073,289.942706 232.978723,298.896724 L232.978723,298.896724 C247.656027,307.388828 266.3381,303.859949 276.906473,290.599158 L285.660145,279.615385 C296.792983,265.646325 317.142091,263.347113 331.111151,274.479951 C333.58779,276.453743 335.761108,278.780581 337.561529,281.385975 L344.743375,291.778846 C354.118072,305.344996 372.715302,308.742841 386.281453,299.368144 C391.17975,295.983245 394.95419,291.211175 397.119905,285.664957 L442.53997,169.347932 C450.807821,148.174652 474.674572,137.712734 495.847852,145.980584 C505.11771,149.600326 512.762101,156.456182 517.365729,165.278846 L540.353972,209.334878 C549.296118,226.472137 570.437652,233.115588 587.574911,224.173442 C589.169893,223.341188 590.698332,222.387195 592.14664,221.319945 L688.931161,150" opacity=".9"/>
    <polygon fill="url(#2-d)" fill-rule="nonzero" points="439 248 627 248 627 372 439 372"/>
    <use fill="#FFF" xlink:href="#2-e"/>
    <use fill="url(#2-f)" xlink:href="#2-e"/>
    <circle cx="246" cy="125.15" r="12" stroke="url(#2-g)" stroke-width="2"/>
  </g>
</svg>
